<svg width="102" height="58" viewBox="0 0 102 58" fill="none" xmlns="http://www.w3.org/2000/svg">
<path d="M41.2141 56.8217L17.3688 56.8217C11.4811 56.8217 -3.99231e-07 50.9289 -2.97692e-07 37.9759C-1.84615e-07 23.5509 11.7755 18.2571 17.3688 18.2571C19.3314 12.2712 28.4378 0.240486 44.4524 0.00496939C60.467 -0.230547 68.0033 7.95383 71.2416 14.1359C71.5136 14.6552 71.8945 15.6787 71.8304 16.491C71.7784 17.1491 71.3593 17.6685 70.9472 17.6685C69.4753 17.6685 67.4146 17.2805 63.5875 13.8362C60.4317 10.9959 55.0608 7.95362 44.4524 7.95362C33.844 7.95362 26.6911 16.7852 25.0229 21.201C25.906 21.7898 29.262 24.1986 29.7331 26.7892C30.0435 28.4969 29.4387 29.4387 25.906 27.6724C23.7537 26.783 21.4902 25.9112 18.8408 25.9112C13.9856 25.9112 8.8316 29.7331 8.8316 37.9759C8.8316 44.7533 15.0137 47.9903 18.8408 48.579C21.9024 49.05 29.7331 48.5686 34.1489 49.457C39.1534 50.4638 41.2141 52.9896 41.8029 54.7612C41.8029 54.7612 42.0973 55.8257 42.0973 55.9387C42.0973 56.6452 41.5085 56.8218 41.2141 56.8217Z" fill="white"/>
<circle cx="56.2286" cy="27.6779" r="5.29896" fill="white"/>
<circle cx="74.4788" cy="27.6776" r="4.12141" fill="white"/>
<circle cx="90.9654" cy="27.6778" r="2.94387" fill="white"/>
<circle cx="90.9634" cy="52.4068" r="2.94387" fill="white"/>
<circle cx="74.4788" cy="52.4061" r="4.12141" fill="white"/>
<circle cx="55.6388" cy="52.4069" r="5.29896" fill="white"/>
<circle cx="83.3109" cy="40.0428" r="4.12141" fill="white"/>
<circle cx="98.6197" cy="40.043" r="2.94387" fill="white"/>
<circle cx="45.0401" cy="40.0425" r="5.88773" fill="white"/>
<circle cx="65.0587" cy="40.0426" r="5.29896" fill="white"/>
<path d="M74.5011 31.2058L74.5011 24.4349L71.6294 25.4517C67.6151 26.8731 63.1988 26.6274 59.367 24.7695L56.248 23.2573L56.2491 32.089L59.5163 30.6103C63.2631 28.9145 67.5207 28.7342 71.3976 30.1069L74.5011 31.2058Z" fill="white"/>
<path d="M74.5011 55.6399L74.5011 48.869L71.6294 49.8858C67.6151 51.3072 63.1988 51.0615 59.367 49.2036L56.248 47.6914L56.2491 56.5231L59.5163 55.0444C63.2631 53.3486 67.5207 53.1682 71.3976 54.541L74.5011 55.6399Z" fill="white"/>
<path d="M83.2921 43.2757L83.2921 36.5048L80.4204 37.5216C76.4062 38.9429 71.9898 38.6972 68.158 36.8394L65.0391 35.3271L65.0401 44.1588L68.3073 42.6801C72.0542 40.9844 76.3118 40.804 80.1886 42.1767L83.2921 43.2757Z" fill="white"/>
<path d="M59.7622 31.206L52.6962 24.1406L52.2649 26.514C51.4486 31.0061 48.1427 34.6396 43.7476 35.8757L41.51 36.5051L48.8692 44.159L49.2223 41.548C49.8946 36.5754 53.6035 32.5533 58.5055 31.4809L59.7622 31.206Z" fill="white"/>
<path d="M52.5986 55.8579L60.0565 49.752L57.8429 49.0328C53.5998 47.6541 50.4789 44.0255 49.7506 39.6239L49.3385 37.1338L40.9218 43.6068L43.4782 44.2447C48.3467 45.4598 51.9366 49.5884 52.4635 54.5786L52.5986 55.8579Z" fill="white"/>
</svg>
